<svg width="269" height="82" viewBox="0 0 269 82" fill="none" xmlns="http://www.w3.org/2000/svg">
<path d="M234.591 67.0942C223.032 65.2827 213.877 56.2321 211.996 44.7577C211.92 44.2915 211.476 43.9712 211.003 44.0495C210.534 44.1242 210.211 44.5656 210.29 45.0353C212.289 57.2321 222.039 66.8842 234.326 68.7919C234.799 68.863 235.24 68.5427 235.312 68.0729C235.387 67.6067 235.061 67.1654 234.591 67.0942Z" fill="#54B2FE"/>
<path d="M265.755 44.7577C263.874 56.2249 254.704 65.304 243.159 67.0942C242.69 67.1654 242.367 67.6067 242.439 68.0729C242.51 68.5427 242.955 68.863 243.424 68.7919C255.711 66.8842 265.461 57.2321 267.46 45.0353C267.539 44.5656 267.217 44.1242 266.747 44.0495C266.274 43.9712 265.83 44.2915 265.755 44.7577Z" fill="#54B2FE"/>
<path d="M247 14.5523C256.861 17.6095 264.236 26.0586 265.791 36.2517C265.862 36.7215 266.303 37.0453 266.776 36.9742C267.253 36.903 267.579 36.4652 267.507 35.9954C265.852 25.1546 257.997 16.1574 247.516 12.9116C247.061 12.7692 246.574 13.0255 246.434 13.4775C246.291 13.9294 246.545 14.4135 247 14.5523Z" fill="#54B2FE"/>
<path d="M211.96 36.2517C213.529 26.0479 220.882 17.6095 230.75 14.5523C231.205 14.4135 231.46 13.9294 231.32 13.4775C231.177 13.0255 230.689 12.7692 230.234 12.9116C219.753 16.1574 211.899 25.1546 210.243 35.9954C210.175 36.4652 210.501 36.903 210.974 36.9742C211.447 37.0453 211.888 36.7215 211.96 36.2517Z" fill="#54B2FE"/>
<path d="M252.848 24.336C262.462 32.44 263.11 46.9893 254.156 55.8833C245.717 64.2648 232.037 64.2648 223.594 55.8833C217.227 49.5553 215.435 39.9032 219.255 31.7032C220.581 28.856 222.516 26.3505 224.895 24.3432V24.3396L224.92 24.3218C226.049 23.3893 227.773 24.0335 228.002 25.4785L228.79 30.4149C228.912 31.1765 228.726 31.9061 228.249 32.5111C224.096 37.8176 224.562 45.3841 229.364 50.1532C234.617 55.3708 243.134 55.3708 248.387 50.1532C253.188 45.3841 253.654 37.8176 249.501 32.5111C249.028 31.9061 248.838 31.1765 248.96 30.4149L249.749 25.4785C249.981 24.0264 251.719 23.3858 252.848 24.336Z" fill="white"/>
<path d="M232.173 21.1222L234.086 33.0984C234.427 35.2124 236.082 36.9386 238.225 36.9386H239.526C241.668 36.9386 243.327 35.2124 243.664 33.0984L245.578 21.1222C245.947 18.8196 244.642 16.4065 242.371 15.8869C241.206 15.62 240.038 15.4847 238.877 15.4847V15.4883C237.705 15.4883 236.537 15.62 235.38 15.8869C233.112 16.4065 231.807 18.8196 232.173 21.1222Z" fill="white"/>
<path d="M234.591 67.0942C223.032 65.2827 213.877 56.2321 211.996 44.7577C211.92 44.2915 211.476 43.9712 211.003 44.0495C210.534 44.1242 210.211 44.5656 210.29 45.0353C212.289 57.2321 222.039 66.8842 234.326 68.7919C234.799 68.863 235.24 68.5427 235.312 68.0729C235.387 67.6067 235.061 67.1654 234.591 67.0942Z" stroke="#54B2FE" stroke-width="2.06009"/>
<path d="M265.755 44.7577C263.874 56.2249 254.704 65.304 243.159 67.0942C242.69 67.1654 242.367 67.6067 242.439 68.0729C242.51 68.5427 242.955 68.863 243.424 68.7919C255.711 66.8842 265.461 57.2321 267.46 45.0353C267.539 44.5656 267.217 44.1242 266.747 44.0495C266.274 43.9712 265.83 44.2915 265.755 44.7577Z" stroke="#54B2FE" stroke-width="2.06009"/>
<path d="M247 14.5523C256.861 17.6095 264.236 26.0586 265.791 36.2517C265.862 36.7215 266.303 37.0453 266.776 36.9742C267.253 36.903 267.579 36.4652 267.507 35.9954C265.852 25.1546 257.997 16.1574 247.516 12.9116C247.061 12.7692 246.574 13.0255 246.434 13.4775C246.291 13.9294 246.545 14.4135 247 14.5523Z" stroke="#54B2FE" stroke-width="2.06009"/>
<path d="M211.96 36.2517C213.529 26.0479 220.882 17.6095 230.75 14.5523C231.205 14.4135 231.46 13.9294 231.32 13.4775C231.177 13.0255 230.689 12.7692 230.234 12.9116C219.753 16.1574 211.899 25.1546 210.243 35.9954C210.175 36.4652 210.501 36.903 210.974 36.9742C211.447 37.0453 211.888 36.7215 211.96 36.2517Z" stroke="#54B2FE" stroke-width="2.06009"/>
<path d="M252.848 24.336C262.462 32.44 263.11 46.9893 254.156 55.8833C245.717 64.2648 232.037 64.2648 223.594 55.8833C217.227 49.5553 215.435 39.9032 219.255 31.7032C220.581 28.856 222.516 26.3505 224.895 24.3432V24.3396L224.92 24.3218C226.049 23.3893 227.773 24.0335 228.002 25.4785L228.79 30.4149C228.912 31.1765 228.726 31.9061 228.249 32.5111C224.096 37.8176 224.562 45.3841 229.364 50.1532C234.617 55.3708 243.134 55.3708 248.387 50.1532C253.188 45.3841 253.654 37.8176 249.501 32.5111C249.028 31.9061 248.838 31.1765 248.96 30.4149L249.749 25.4785C249.981 24.0264 251.719 23.3858 252.848 24.336Z" stroke="#54B2FE" stroke-width="2.06009"/>
<path d="M232.173 21.1222L234.086 33.0984C234.427 35.2124 236.082 36.9386 238.225 36.9386H239.526C241.668 36.9386 243.327 35.2124 243.664 33.0984L245.578 21.1222C245.947 18.8196 244.642 16.4065 242.371 15.8869C241.206 15.62 240.038 15.4847 238.877 15.4847V15.4883C237.705 15.4883 236.537 15.62 235.38 15.8869C233.112 16.4065 231.807 18.8196 232.173 21.1222Z" stroke="#54B2FE" stroke-width="2.06009"/>
<path d="M0 69.0903H16.3252V68.7771C16.1676 67.8375 14.2756 62.0398 14.2756 56.712V25.0615C14.2756 19.7337 16.1676 13.936 16.3252 12.9964V12.6832H0V12.9964C0.157662 13.936 2.04961 19.7337 2.04961 25.0615V56.712C2.04961 62.0398 0.157662 67.8375 0 68.7771V69.0903Z" fill="white"/>
<path d="M73.6475 40.8317H54.7961V41.1449C55.1938 42.1628 59.6084 47.8821 59.6084 53.21V64.1753C57.007 65.5847 54.0866 66.5279 51.091 66.5279C41.703 66.4496 35.3929 56.1853 35.3929 40.9883C35.3929 25.866 41.4665 15.527 50.5392 15.6053C59.3719 15.6836 67.1009 27.197 69.3118 30.4108H70.0213V16.31C63.0017 13.4877 55.7457 12 50.1451 12C33.8951 12 21.4326 24.6915 21.4326 40.9883C21.4326 58.1428 33.6586 70.0513 48.9626 70.0513C58.0318 70.0513 67.0221 66.6845 71.8344 64.3319V53.21C71.8344 47.8821 73.4898 42.1628 73.6475 41.1449V40.8317Z" fill="white"/>
<path d="M129.724 12.6832H118.054V13.0747C118.369 14.5624 122.074 22.7909 122.074 30.4677V53.58L94.1535 12.6832H79.2472V12.9964C79.5626 14.0926 82.5582 20.3601 82.5582 26.1577V51.3058C82.5582 58.9826 78.9319 67.2111 78.5342 68.6988V69.0903H90.2084V68.6988C89.893 67.2111 86.188 58.9826 86.188 51.3058V22.8692L117.896 69.0903H125.704V30.4677C125.704 22.7909 129.33 14.5624 129.724 13.0747V12.6832Z" fill="white"/>
<path d="M134.261 69.0903H150.586V68.7771C150.428 67.8375 148.536 62.0398 148.536 56.712V25.0615C148.536 19.7337 150.428 13.936 150.586 12.9964V12.6832H134.261V12.9964C134.418 13.936 136.31 19.7337 136.31 25.0615V56.712C136.31 62.0398 134.418 67.8375 134.261 68.7771V69.0903Z" fill="white"/>
<path d="M205.123 12.6832H155.588V28.5885H155.903C157.086 27.8838 164.503 16.2102 171.128 16.2102H174.282V56.712C174.282 62.0398 172.39 67.8375 172.232 68.7771V69.0903H188.557V68.7771C188.4 67.8375 186.508 62.0398 186.508 56.712V16.2102H189.503C196.286 16.2102 203.625 27.8838 204.728 28.5885H205.123V12.6832Z" fill="white"/>
</svg>
