<svg width="105" height="71" viewBox="0 0 105 71" fill="none" xmlns="http://www.w3.org/2000/svg">
<path d="M33.7613 22.6641C33.6633 20.2021 32.9539 13.3583 29.0275 5.81061C27.5158 2.90461 25.0498 2.09885 23.0357 1.72776C22.0083 1.53847 20.9313 1.60159 19.9825 1.93932C19.0337 2.27706 18.2357 2.95253 17.6545 3.9418C16.4126 6.05566 16.0562 23.5544 15.3745 48.7914C15.0729 59.96 13.6734 63.0074 12.3272 65.1403C10.9084 67.3882 8.66874 68.5527 6.574 68.9966C5.51847 69.2203 4.40964 69.0138 3.71892 68.3722C2.21491 66.9753 2.46742 63.9966 2.66081 61.4472C2.75403 60.2183 3.40206 59.1968 4.15677 58.5475C4.91148 57.8981 5.89761 57.6713 7.04951 57.7316C15.1366 58.1555 20.9298 70.1407 22.9382 69.9654C28.3195 69.4955 25.9773 60.5302 26.0284 58.1525C26.0671 56.3516 26.4427 63.0464 26.8991 63.8207C29.375 68.0208 29.3644 54.81 32.2919 51.9112C33.591 50.6247 36.1041 53.2608 37.7924 55.2662C40.6616 58.6744 40.1915 63.956 42.8448 67.3721C43.5194 68.2407 44.5274 68.8282 45.5694 69.2127C46.6114 69.5972 47.7896 69.6398 48.5892 68.8438C53.8776 63.5797 49.4352 51.7871 46.0518 39.866C42.1538 26.1318 43.743 15.0039 45.1856 12.5448C45.849 11.414 46.9105 10.8824 48.318 10.5694C51.5198 9.85741 54.7873 10.8524 57.0982 12.1165C58.1212 12.8135 58.8405 13.623 59.4953 14.5196C60.1501 15.4161 60.7185 16.3752 61.6871 19.043" stroke="black" stroke-width="2" stroke-linecap="round"/>
<path d="M30.4414 37.1484C30.6683 37.1484 38.575 36.5207 52.096 34.9604C74.0133 32.4313 91.1111 31.0022 88.1274 30.4788C78.4776 28.7859 66.4782 28.6668 58.1631 28.064C54.9946 27.8343 54.1495 26.3074 53.6442 24.7319C51.4175 17.789 54.7521 12.7396 56.4513 10.7672C57.232 9.86097 58.2343 9.52048 59.3437 9.76464C60.4532 10.0088 61.7384 10.9434 62.7962 13.214C65.3867 18.7747 65.6556 31.1315 66.1194 43.0508C66.2573 46.5962 66.7262 45.0289 67.1858 43.6247C67.6453 42.2205 68.2163 41.0191 69.0152 40.3441C69.814 39.6691 70.8234 39.557 71.8306 40.3925C72.8378 41.2281 73.8123 43.0147 74.6618 43.4478C76.1196 44.1912 77.5973 41.1134 79.0571 40.1624C79.7282 39.7252 80.7141 40.4888 81.7348 40.1856C84.2112 39.4497 85.8 35.5883 87.2779 32.8575C87.9962 31.5302 90.305 34.472 91.9843 35.6719C92.8039 36.2576 94.0451 35.8896 94.8722 35.3454C96.5362 34.2506 97.6043 32.3222 99.3251 31.7863C100.12 31.539 100.903 32.4699 101.287 33.6722C101.672 34.8744 101.672 36.6082 101.282 37.9719C99.8879 42.8469 91.6523 43.9515 89.0773 46.7136C85.1423 50.9344 99.8154 37.3863 101.646 37.0671C102.474 37.4789 103.097 39.0554 103.418 42.1698C103.738 45.2842 103.738 49.8888 103.738 54.6328" stroke="black" stroke-width="2" stroke-linecap="round"/>
</svg>
